<mxfile host="app.diagrams.net" agent="Mozilla/5.0 (Windows NT 10.0; Win64; x64) AppleWebKit/537.36 (KHTML, like Gecko) Chrome/130.0.0.0 Safari/537.36" version="24.8.3">
  <diagram name="Сторінка-1" id="0A23KOulbJrZRMk3lU6y">
    <mxGraphModel dx="1432" dy="820" grid="1" gridSize="10" guides="1" tooltips="1" connect="1" arrows="1" fold="1" page="1" pageScale="1" pageWidth="827" pageHeight="1169" math="0" shadow="0">
      <root>
        <mxCell id="0" />
        <mxCell id="1" parent="0" />
        <mxCell id="vHD7U8oJF0oFhszPy0mI-7" style="edgeStyle=orthogonalEdgeStyle;rounded=0;orthogonalLoop=1;jettySize=auto;html=1;" edge="1" parent="1" source="vHD7U8oJF0oFhszPy0mI-1" target="vHD7U8oJF0oFhszPy0mI-4">
          <mxGeometry relative="1" as="geometry" />
        </mxCell>
        <mxCell id="vHD7U8oJF0oFhszPy0mI-1" value="start" style="ellipse;whiteSpace=wrap;html=1;" vertex="1" parent="1">
          <mxGeometry x="350" y="60" width="120" height="80" as="geometry" />
        </mxCell>
        <mxCell id="vHD7U8oJF0oFhszPy0mI-9" style="edgeStyle=orthogonalEdgeStyle;rounded=0;orthogonalLoop=1;jettySize=auto;html=1;entryX=0.5;entryY=0;entryDx=0;entryDy=0;" edge="1" parent="1" source="vHD7U8oJF0oFhszPy0mI-2" target="vHD7U8oJF0oFhszPy0mI-3">
          <mxGeometry relative="1" as="geometry" />
        </mxCell>
        <mxCell id="vHD7U8oJF0oFhszPy0mI-2" value="f(n) / pow(n, sqrt(n));" style="rounded=0;whiteSpace=wrap;html=1;" vertex="1" parent="1">
          <mxGeometry x="350" y="310" width="120" height="60" as="geometry" />
        </mxCell>
        <mxCell id="vHD7U8oJF0oFhszPy0mI-10" style="edgeStyle=orthogonalEdgeStyle;rounded=0;orthogonalLoop=1;jettySize=auto;html=1;entryX=0.5;entryY=0;entryDx=0;entryDy=0;" edge="1" parent="1" source="vHD7U8oJF0oFhszPy0mI-3" target="vHD7U8oJF0oFhszPy0mI-6">
          <mxGeometry relative="1" as="geometry" />
        </mxCell>
        <mxCell id="vHD7U8oJF0oFhszPy0mI-3" value="cout" style="shape=parallelogram;perimeter=parallelogramPerimeter;whiteSpace=wrap;html=1;fixedSize=1;" vertex="1" parent="1">
          <mxGeometry x="350" y="410" width="120" height="60" as="geometry" />
        </mxCell>
        <mxCell id="vHD7U8oJF0oFhszPy0mI-8" style="edgeStyle=orthogonalEdgeStyle;rounded=0;orthogonalLoop=1;jettySize=auto;html=1;entryX=0.5;entryY=0;entryDx=0;entryDy=0;" edge="1" parent="1" source="vHD7U8oJF0oFhszPy0mI-4" target="vHD7U8oJF0oFhszPy0mI-2">
          <mxGeometry relative="1" as="geometry" />
        </mxCell>
        <mxCell id="vHD7U8oJF0oFhszPy0mI-4" value="for" style="rhombus;whiteSpace=wrap;html=1;" vertex="1" parent="1">
          <mxGeometry x="370" y="170" width="80" height="80" as="geometry" />
        </mxCell>
        <mxCell id="vHD7U8oJF0oFhszPy0mI-6" value="end" style="ellipse;whiteSpace=wrap;html=1;" vertex="1" parent="1">
          <mxGeometry x="350" y="510" width="120" height="80" as="geometry" />
        </mxCell>
      </root>
    </mxGraphModel>
  </diagram>
</mxfile>
